<?xml version="1.0" encoding="UTF-8" standalone="no"?>
<svg width="15px" height="19px" viewBox="0 0 15 19" version="1.1" xmlns="http://www.w3.org/2000/svg" xmlns:xlink="http://www.w3.org/1999/xlink">
    <!-- Generator: Sketch 39.1 (31720) - http://www.bohemiancoding.com/sketch -->
    <title>Shape</title>
    <desc>Created with Sketch.</desc>
    <defs></defs>
    <g id="Symbols" stroke="none" stroke-width="1" fill="none" fill-rule="evenodd">
        <g id="footer" transform="translate(-1136.000000, -100.000000)" fill="#FFFFFF">
            <g transform="translate(0.000000, 0.421875)" id="social-network">
                <g transform="translate(1015.000000, 98.223758)">
                    <g id="pininterest" transform="translate(121.000000, 1.722137)">
                        <path d="M8.06087694,0 C3.12587694,0 0.637876944,3.522 0.637876944,6.46 C0.637876944,8.238 1.31387694,9.82 2.76487694,10.41 C3.00287694,10.507 3.21587694,10.413 3.28487694,10.151 C3.33287694,9.97 3.44687694,9.512 3.49687694,9.321 C3.56687694,9.062 3.53987694,8.971 3.34787694,8.745 C2.92887694,8.254 2.66187694,7.618 2.66187694,6.717 C2.66187694,4.104 4.62587694,1.765 7.77587694,1.765 C10.5648769,1.765 12.0968769,3.462 12.0968769,5.727 C12.0968769,8.709 10.7718769,11.225 8.80387694,11.225 C7.71787694,11.225 6.90487694,10.33 7.16487694,9.233 C7.47787694,7.924 8.08187694,6.51 8.08187694,5.564 C8.08187694,4.718 7.62587694,4.012 6.68087694,4.012 C5.57087694,4.012 4.67887694,5.156 4.67887694,6.688 C4.67887694,7.665 5.00987694,8.325 5.00987694,8.325 C5.00987694,8.325 3.87287694,13.119 3.67387694,13.959 C3.27687694,15.631 3.61487694,17.681 3.64287694,17.889 C3.65987694,18.011 3.81787694,18.04 3.88987694,17.948 C3.99187694,17.814 5.31487694,16.189 5.76487694,14.564 C5.89187694,14.104 6.49487694,11.722 6.49487694,11.722 C6.85587694,12.407 7.91087694,13.011 9.03187694,13.011 C12.3708769,13.011 14.6358769,9.98 14.6358769,5.924 C14.6358769,2.857 12.0268769,0 8.06087694,0 L8.06087694,0 Z" id="Shape"></path>
                    </g>
                </g>
            </g>
        </g>
    </g>
</svg>