<?xml version="1.0" encoding="UTF-8" standalone="no"?>
<svg width="22px" height="17px" viewBox="0 0 22 17" version="1.1" xmlns="http://www.w3.org/2000/svg" xmlns:xlink="http://www.w3.org/1999/xlink">
    <!-- Generator: Sketch 39.1 (31720) - http://www.bohemiancoding.com/sketch -->
    <title>Shape</title>
    <desc>Created with Sketch.</desc>
    <defs></defs>
    <g id="Symbols" stroke="none" stroke-width="1" fill="none" fill-rule="evenodd">
        <g id="footer" transform="translate(-1048.000000, -101.000000)" fill="#FFFFFF">
            <g transform="translate(0.000000, 0.421875)" id="social-network">
                <g transform="translate(1015.000000, 98.223758)">
                    <g id="twitter" transform="translate(33.000000, 2.722137)">
                        <path d="M21.546898,1.896 C20.773898,2.218 19.942898,2.433 19.071898,2.531 C19.961898,2.031 20.644898,1.239 20.966898,0.297 C20.132898,0.759 19.210898,1.095 18.228898,1.277 C17.443898,0.491 16.322898,0.001 15.083898,0.001 C12.703898,0.001 10.772898,1.81 10.772898,4.04 C10.772898,4.357 10.810898,4.666 10.884898,4.961 C7.30289796,4.792 4.12689796,3.184 2.00089796,0.741 C1.62989796,1.338 1.41789796,2.031 1.41789796,2.772 C1.41789796,4.172 2.17889796,5.41 3.33489796,6.134 C2.62889796,6.112 1.96489796,5.931 1.38289796,5.628 L1.38289796,5.68 C1.38289796,7.637 2.86789796,9.269 4.83989796,9.64 C4.47889796,9.732 4.09689796,9.78 3.70489796,9.78 C3.42689796,9.78 3.15689796,9.756 2.89389796,9.71 C3.44189796,11.313 5.03389796,12.482 6.91989796,12.515 C5.44489796,13.598 3.58689796,14.243 1.56689796,14.243 C1.21889796,14.243 0.875897959,14.224 0.538897959,14.187 C2.44589796,15.332 4.71189796,16.002 7.14589796,16.002 C15.073898,16.002 19.408898,9.846 19.408898,4.509 C19.408898,4.333 19.403898,4.16 19.395898,3.986 C20.237898,3.416 20.968898,2.705 21.546898,1.896 L21.546898,1.896 Z" id="Shape"></path>
                    </g>
                </g>
            </g>
        </g>
    </g>
</svg>