<?xml version="1.0" encoding="UTF-8" standalone="no"?>
<svg width="21px" height="19px" viewBox="0 0 21 19" version="1.1" xmlns="http://www.w3.org/2000/svg" xmlns:xlink="http://www.w3.org/1999/xlink">
    <!-- Generator: Sketch 39.1 (31720) - http://www.bohemiancoding.com/sketch -->
    <title>Shape</title>
    <desc>Created with Sketch.</desc>
    <defs></defs>
    <g id="Symbols" stroke="none" stroke-width="1" fill="none" fill-rule="evenodd">
        <g id="footer" transform="translate(-1093.000000, -100.000000)" fill="#FFFFFF">
            <g transform="translate(0.000000, 0.421875)" id="social-network">
                <g transform="translate(1015.000000, 98.223758)">
                    <g id="Linked-In" transform="translate(78.000000, 0.722137)">
                        <path d="M19.3580524,19.013 L2.33405237,19.013 C1.51805237,19.013 0.857052367,18.434 0.857052367,17.72 L0.857052367,2.282 C0.857052367,1.569 1.51805237,0.99 2.33405237,0.99 L19.3580524,0.99 C20.1730524,0.99 20.8340524,1.569 20.8340524,2.282 L20.8340524,17.72 C20.8340524,18.434 20.1730524,19.013 19.3580524,19.013 L19.3580524,19.013 Z M4.31905237,16.044 L7.26105237,16.044 L7.26105237,7.907 L4.31905237,7.907 L4.31905237,16.044 L4.31905237,16.044 Z M5.81005237,3.985 C4.80305237,3.985 4.14605237,4.592 4.14605237,5.391 C4.14605237,6.171 4.78405237,6.797 5.77105237,6.797 L5.79005237,6.797 C6.81605237,6.797 7.45405237,6.171 7.45405237,5.391 C7.43605237,4.592 6.81605237,3.985 5.81005237,3.985 L5.81005237,3.985 Z M17.8690524,11.379 C17.8690524,8.879 16.4170524,7.716 14.4820524,7.716 C12.9200524,7.716 12.2220524,8.505 11.8310524,9.06 L11.8310524,7.907 L8.88905237,7.907 C8.92805237,8.671 8.88905237,16.044 8.88905237,16.044 L11.8310524,16.044 L11.8310524,11.5 C11.8310524,11.258 11.8500524,11.014 11.9280524,10.841 C12.1400524,10.355 12.6250524,9.852 13.4370524,9.852 C14.5020524,9.852 14.9270524,10.598 14.9270524,11.692 L14.9270524,16.044 L17.8690524,16.044 L17.8690524,11.379 L17.8690524,11.379 Z M11.8110524,9.087 C11.8170524,9.078 11.8250524,9.069 11.8310524,9.06 L11.8310524,9.087 L11.8110524,9.087 L11.8110524,9.087 Z" id="Shape"></path>
                    </g>
                </g>
            </g>
        </g>
    </g>
</svg>