<?xml version="1.0" encoding="UTF-8" standalone="no"?>
<svg width="141px" height="117px" viewBox="0 0 141 117" version="1.1" xmlns="http://www.w3.org/2000/svg" xmlns:xlink="http://www.w3.org/1999/xlink">
    <!-- Generator: Sketch 39.1 (31720) - http://www.bohemiancoding.com/sketch -->
    <title>people_group</title>
    <desc>Created with Sketch.</desc>
    <defs></defs>
    <g id="Welcome" stroke="none" stroke-width="1" fill="none" fill-rule="evenodd">
        <g id="Desktop-HD" transform="translate(-966.000000, -1353.000000)" fill="#FFFFFF">
            <g id="claim" transform="translate(0.000000, 1128.140625)">
                <g id="people_group" transform="translate(966.000000, 225.000000)">
                    <g id="Group">
                        <path d="M110.49918,84.2120587 C110.416866,84.1889336 110.3329,84.1710392 110.248383,84.1583755 L93.0681255,81.5807587 C90.2898164,79.783337 90.0277325,75.3251584 90.0225019,70.4975297 C95.4480782,64.9053979 98.8320433,57.0329715 98.8320433,48.3244644 L98.8320433,47.6191505 C103.043004,43.8797754 105.439199,38.5742291 105.439199,32.9077668 L105.439199,19.6934546 C105.439199,8.83982426 96.6090106,0.00963543598 85.7553802,0.00963543598 L57.1243704,0.00963543598 C53.0144441,0.00963543598 49.5633062,2.88374834 48.6746437,6.7271861 C41.1155065,7.64035013 35.2381659,14.0947157 35.2381659,21.89584 L35.2381659,32.9077668 C35.2381659,38.575055 37.6340858,43.8800507 41.845322,47.6194258 L41.845322,48.3244644 C41.845322,57.0329715 45.2292871,64.9053979 50.6545881,70.4975297 C50.6496328,75.3251584 50.3872736,79.7830617 47.6089645,81.5807587 L30.4287068,84.1583755 C30.3441903,84.1710392 30.2604996,84.1889336 30.1779102,84.2120587 C26.3994428,85.2705801 23.1845108,87.6136429 20.8805404,90.9885231 C18.7775376,94.0691097 17.6190829,97.7878374 17.6190829,101.459764 L17.6190829,109.991255 C17.6190829,113.548107 20.7921696,116.441766 24.6923188,116.441766 L115.984771,116.441766 C119.88492,116.441766 123.058007,113.548107 123.058007,109.991255 L123.058007,101.459764 C123.058007,97.7881127 121.899552,94.069385 119.79655,90.9887984 C117.492855,87.6139182 114.277647,85.2705801 110.49918,84.2120587 L110.49918,84.2120587 Z M70.3386826,79.0202105 C76.1034263,79.0202105 81.4725666,77.1647008 85.9618538,73.981428 C86.1603438,77.7497094 86.9408141,81.9306627 90.0054334,84.4504669 C88.3481384,92.8878052 80.1136948,99.1169769 70.3386826,99.1169769 C60.5636705,99.1169769 52.3292269,92.8878052 50.6719319,84.4504669 C53.7368265,81.9306627 54.5170215,77.7497094 54.7155114,73.981428 C59.2047987,77.1647008 64.5739389,79.0202105 70.3386826,79.0202105 L70.3386826,79.0202105 Z M45.9747945,46.8631817 C45.986357,46.7373705 45.9860818,46.6115592 45.9747945,46.4862985 L45.9747945,35.1098769 C45.9747945,31.3908739 49.0005967,28.3650717 52.7195997,28.3650717 L90.1601509,28.3650717 C91.300436,28.3650717 92.2248872,27.4408958 92.2248872,26.3003355 C92.2248872,25.1600504 91.300436,24.2355992 90.1601509,24.2355992 L52.7195997,24.2355992 C46.7236055,24.2355992 41.845322,29.1138828 41.845322,35.1098769 L41.845322,41.3329921 C40.2439125,38.853932 39.3676384,35.9476092 39.3676384,32.9074915 L39.3676384,21.8955647 C39.3676384,15.747606 44.3692556,10.7459888 50.5172143,10.7459888 C51.6574994,10.7459888 52.5819506,9.82181284 52.5819506,8.68125252 C52.5819506,6.17658976 54.6197077,4.1388327 57.1243704,4.1388327 L85.7553802,4.1388327 C94.3320194,4.1388327 101.309727,11.1165401 101.309727,19.6931794 L101.309727,32.9074915 C101.309727,35.9470587 100.433453,38.8533814 98.8320433,41.3327168 L98.8320433,32.9074915 C98.8320433,31.7672065 97.9075921,30.8427553 96.767307,30.8427553 C95.627022,30.8427553 94.7025708,31.7672065 94.7025708,32.9074915 L94.7025708,48.3241891 C94.7025708,62.9728048 83.7729581,74.8904626 70.3386826,74.8904626 C56.9044072,74.8904626 45.9747945,62.9728048 45.9747945,48.3241891 L45.9747945,46.8631817 L45.9747945,46.8631817 Z M118.92881,109.991255 C118.92881,111.249367 117.580675,112.312294 115.985046,112.312294 L24.6923188,112.312294 C23.0966906,112.312294 21.7485555,111.249367 21.7485555,109.991255 L21.7485555,101.459764 C21.7485555,96.2268967 24.9855114,90.0230525 31.1733884,88.2223271 L46.751686,85.8850456 C49.0611623,95.9171863 58.8237861,103.246449 70.3386826,103.246449 C81.8535792,103.246449 91.616203,95.9171863 93.9256793,85.8850456 L109.503977,88.2223271 C115.691854,90.0230525 118.92881,96.2268967 118.92881,101.459764 L118.92881,109.991255 L118.92881,109.991255 Z" id="Shape"></path>
                        <path d="M13.0766631,92.5098208 L5.30527105,92.5098208 C4.63244232,92.5098208 4.12947256,92.1021042 4.12947256,91.7370589 L4.12947256,86.2170552 C4.12947256,83.1169225 6.02710285,79.4477485 9.65608334,78.3658267 L20.8954065,76.6796254 C20.9441342,76.6724677 20.9912102,76.6614557 21.0388368,76.6507191 C21.0594842,76.646039 21.0804068,76.6435613 21.1010542,76.6383307 C21.1781377,76.6187845 21.2527435,76.5940077 21.3256975,76.5662026 C21.3433166,76.5595954 21.3606604,76.5513365 21.3780042,76.5439034 C21.4380192,76.5191266 21.4963824,76.4918721 21.5533691,76.4618646 C21.5627292,76.4569092 21.5729153,76.4536056 21.5822754,76.4483749 C21.6004451,76.4384642 21.616963,76.4274523 21.6351326,76.4172663 C21.6505493,76.4081814 21.665966,76.3996472 21.6811074,76.390287 C24.1827419,74.9631413 25.0485547,72.3789174 25.3467026,69.8536073 C28.0875712,71.4800689 31.2347799,72.4086496 34.5813044,72.4086496 C37.3901717,72.4086496 40.0974539,71.7705084 42.6279947,70.5115699 C43.6488003,70.0036448 44.0650511,68.7645277 43.557126,67.7434468 C43.0492009,66.7223659 41.8098085,66.3063903 40.7887276,66.8143155 C38.8346612,67.786118 36.7459739,68.279177 34.5813044,68.279177 C26.2907,68.279177 19.5461701,60.8954048 19.5461701,51.81965 L19.5461701,43.0123109 C19.5461701,41.0078649 21.1767612,39.3772739 23.1812072,39.3772739 L28.4933607,39.3772739 C29.6336457,39.3772739 30.558097,38.4530979 30.558097,37.3125376 C30.558097,36.1722526 29.6336457,35.2478013 28.4933607,35.2478013 L23.1812072,35.2478013 C18.89977,35.2478013 15.4166976,38.7308738 15.4166976,43.0123109 L15.4166976,44.094508 C15.2372032,43.3671703 15.1413994,42.6136792 15.1413994,41.8450467 L15.1413994,34.72033 C15.1413994,31.1444821 18.0504752,28.2354063 21.6263231,28.2354063 C22.7666081,28.2354063 23.6910594,27.310955 23.6910594,26.17067 C23.6910594,24.951925 24.6824081,23.9605763 25.9011531,23.9605763 L28.4933607,23.9605763 C29.6336457,23.9605763 30.558097,23.0364003 30.558097,21.89584 C30.558097,20.755555 29.6336457,19.8311037 28.4933607,19.8311037 L25.9011531,19.8311037 C23.0735656,19.8311037 20.6724149,21.6918441 19.8578077,24.2532183 C14.8438021,25.0975577 11.0119268,29.4698433 11.0119268,34.72033 L11.0119268,41.8450467 C11.0119268,45.6697642 12.6081056,49.2516687 15.4166976,51.8034074 L15.4166976,51.8199253 C15.4166976,57.6749668 17.7071783,62.9626188 21.371397,66.7149328 C21.3490978,69.3407268 21.1481302,71.6945261 19.8500993,72.661098 L8.90864881,74.302701 C8.82413227,74.3153647 8.74044163,74.3332591 8.65785217,74.3563841 C2.97377084,75.9487088 0,81.5281768 0,86.2170552 L0,91.7370589 C0,94.4399363 2.37995269,96.6392934 5.30527105,96.6392934 L13.0766631,96.6392934 C14.2169481,96.6392934 15.1413994,95.7151174 15.1413994,94.5745571 C15.1413994,93.4342721 14.2169481,92.5098208 13.0766631,92.5098208 L13.0766631,92.5098208 Z" id="Shape"></path>
                        <path d="M132.019513,74.3561088 C131.937199,74.3332591 131.853233,74.3150894 131.768716,74.3024257 L120.827266,72.6608227 C119.529235,71.6942508 119.327992,69.3404515 119.305693,66.7149328 C122.969912,62.9623435 125.260392,57.6746915 125.260392,51.81965 L125.260392,51.8031321 C128.068984,49.2513934 129.665163,45.6692136 129.665163,41.842569 L129.665163,30.7051062 C129.665163,24.709112 124.78688,19.8308284 118.790885,19.8308284 L112.183729,19.8308284 C111.043444,19.8308284 110.118993,20.7552797 110.118993,21.8955647 C110.118993,23.036125 111.043444,23.960301 112.183729,23.960301 L118.790885,23.960301 C122.509888,23.960301 125.535691,26.9861032 125.535691,30.7051062 L125.535691,41.8447714 C125.535691,42.6134039 125.439887,43.366895 125.260392,44.0942327 L125.260392,43.0120356 C125.260392,38.7305985 121.77732,35.247526 117.495883,35.247526 L112.184005,35.247526 C111.04372,35.247526 110.119268,36.1719773 110.119268,37.3122623 C110.119268,38.4528226 111.04372,39.3769986 112.184005,39.3769986 L117.496158,39.3769986 C119.500604,39.3769986 121.131195,41.0075896 121.131195,43.0120356 L121.131195,51.8193747 C121.131195,60.8951295 114.386665,68.2789017 106.096611,68.2789017 C103.931667,68.2789017 101.843255,67.7858427 99.8891883,66.8140402 C98.8678321,66.306115 97.628715,66.7223659 97.1207899,67.7431715 C96.6128648,68.7642524 97.0291156,70.0033695 98.0499212,70.5112946 C100.580462,71.7699578 103.287744,72.4083743 106.096611,72.4083743 C109.442861,72.4083743 112.590345,71.4797936 115.330938,69.853332 C115.629086,72.3783668 116.495174,74.962866 118.996808,76.3900117 C119.011675,76.3993719 119.027367,76.4079061 119.042508,76.416991 C119.060402,76.427177 119.077196,76.4381889 119.095365,76.4480996 C119.104725,76.4533303 119.114911,76.4566339 119.124271,76.4615893 C119.180983,76.4915968 119.239346,76.5188513 119.299361,76.5436281 C119.31698,76.5510612 119.334324,76.5593201 119.351943,76.5659273 C119.424897,76.5937324 119.499228,76.6185092 119.576311,76.6380554 C119.597234,76.6432861 119.618156,76.646039 119.639079,76.6507191 C119.686155,76.6611804 119.733231,76.6721924 119.781684,76.6793501 L131.020731,78.3655514 C134.649987,79.4474732 136.547617,83.1166472 136.547617,86.2167799 L136.547617,91.7367836 C136.547617,92.1015536 136.044648,92.5095455 135.371819,92.5095455 L127.600702,92.5095455 C126.460417,92.5095455 125.535966,93.4339968 125.535966,94.5742818 C125.535966,95.7148421 126.460417,96.6390181 127.600702,96.6390181 L135.372094,96.6390181 C138.297413,96.6390181 140.677365,94.4399363 140.677365,91.7367836 L140.677365,86.2167799 C140.677365,81.5281768 137.703594,75.9487088 132.019513,74.3561088 L132.019513,74.3561088 Z" id="Shape"></path>
                    </g>
                </g>
            </g>
        </g>
    </g>
</svg>