<?xml version="1.0" encoding="UTF-8" standalone="no"?>
<svg width="24px" height="16px" viewBox="0 0 24 16" version="1.1" xmlns="http://www.w3.org/2000/svg" xmlns:xlink="http://www.w3.org/1999/xlink">
    <!-- Generator: Sketch 39.1 (31720) - http://www.bohemiancoding.com/sketch -->
    <title>google-plus - FontAwesome</title>
    <desc>Created with Sketch.</desc>
    <defs></defs>
    <g id="Symbols" stroke="none" stroke-width="1" fill="none" fill-rule="evenodd">
        <g id="footer" transform="translate(-1174.000000, -101.000000)" fill="#FFFFFF">
            <g transform="translate(0.000000, 0.421875)" id="social-network">
                <g transform="translate(1015.000000, 98.223758)">
                    <path d="M173.434169,10.4643169 C173.434169,9.98217342 173.383946,9.6105212 173.313633,9.23886897 L166.362732,9.23886897 L166.362732,11.770122 L170.541308,11.770122 C170.370549,12.8449001 169.275682,14.9442329 166.362732,14.9442329 C163.851568,14.9442329 161.802459,12.8649894 161.802459,10.2935577 C161.802459,7.72212609 163.851568,5.64288254 166.362732,5.64288254 C167.799118,5.64288254 168.75336,6.25560648 169.295771,6.77792853 L171.294658,4.85939946 C170.008942,3.65404088 168.351574,2.93082573 166.362732,2.93082573 C162.294647,2.93082573 159,6.22547252 159,10.2935577 C159,14.3616429 162.294647,17.6562897 166.362732,17.6562897 C170.611621,17.6562897 173.434169,14.6730272 173.434169,10.4643169 L173.434169,10.4643169 Z M182.142885,9.23886897 L180.043552,9.23886897 L180.043552,7.13953611 L177.934174,7.13953611 L177.934174,9.23886897 L175.834841,9.23886897 L175.834841,11.3482465 L177.934174,11.3482465 L177.934174,13.4475793 L180.043552,13.4475793 L180.043552,11.3482465 L182.142885,11.3482465 L182.142885,9.23886897 Z" id="google-plus---FontAwesome"></path>
                </g>
            </g>
        </g>
    </g>
</svg>