<?xml version="1.0" encoding="UTF-8" standalone="no"?>
<svg width="40px" height="40px" viewBox="0 0 40 40" version="1.1" xmlns="http://www.w3.org/2000/svg" xmlns:xlink="http://www.w3.org/1999/xlink">
    <!-- Generator: Sketch 39.1 (31720) - http://www.bohemiancoding.com/sketch -->
    <title>logo</title>
    <desc>Created with Sketch.</desc>
    <defs>
        <path d="M19.77172,39.54344 C30.6913394,39.54344 39.54344,30.6913394 39.54344,19.77172 C39.54344,8.85210057 30.6913394,0 19.77172,0 C8.85210057,0 0,8.85210057 0,19.77172 C0,30.6913394 8.85210057,39.54344 19.77172,39.54344 Z" id="path-1"></path>
        <mask id="mask-2" maskContentUnits="userSpaceOnUse" maskUnits="objectBoundingBox" x="0" y="0" width="39.54344" height="39.54344" fill="white">
            <use xlink:href="#path-1"></use>
        </mask>
    </defs>
    <g id="Map" stroke="none" stroke-width="1" fill="none" fill-rule="evenodd">
        <g id="Desktop-HD" transform="translate(-240.000000, -20.000000)">
            <g id="menu" transform="translate(0.000000, 20.000000)">
                <g id="logo" transform="translate(240.000000, 0.000000)">
                    <use id="Oval-2" stroke="#0CA0BD" mask="url(#mask-2)" stroke-width="2" xlink:href="#path-1"></use>
                    <g id="people_group" transform="translate(7.148000, 9.158961)" fill="#0CA0BD">
                        <g id="Group">
                            <path d="M19.1374446,14.5847563 C19.1231885,14.5807512 19.1086464,14.5776521 19.0940089,14.5754589 L16.1185458,14.1290393 C15.6373682,13.8177423 15.5919777,13.0456267 15.5910718,12.2095256 C16.5307318,11.2410197 17.1168035,9.87758762 17.1168035,8.36935407 L17.1168035,8.24720017 C17.8461033,7.5995747 18.2611024,6.68070273 18.2611024,5.69932343 L18.2611024,3.41072574 C18.2611024,1.5309765 16.7317947,0.00166876915 14.8520454,0.00166876915 L9.89341709,0.00166876915 C9.18161553,0.00166876915 8.5839101,0.499438766 8.43000191,1.16508694 C7.12082867,1.32323858 6.10292717,2.44107551 6.10292717,3.79215869 L6.10292717,5.69932343 C6.10292717,6.68084577 6.51787854,7.59962238 7.24722601,8.24724785 L7.24722601,8.36935407 C7.24722601,9.87758762 7.83329774,11.2410197 8.77291013,12.2095256 C8.7720519,13.0456267 8.7266137,13.8176946 8.24543604,14.1290393 L5.26997297,14.5754589 C5.25533548,14.5776521 5.24084103,14.5807512 5.22653729,14.5847563 C4.57214139,14.7680825 4.01534465,15.1738795 3.6163181,15.7583778 C3.25209732,16.2919071 3.05146359,16.9359567 3.05146359,17.5719007 L3.05146359,19.0494766 C3.05146359,19.6654908 3.60101311,20.166646 4.27648318,20.166646 L20.0874987,20.166646 C20.7629688,20.166646 21.3125183,19.6654908 21.3125183,19.0494766 L21.3125183,17.5719007 C21.3125183,16.9360043 21.1118846,16.2919548 20.7476638,15.7584255 C20.3486849,15.1739271 19.7918405,14.7680825 19.1374446,14.5847563 L19.1374446,14.5847563 Z M12.1820148,13.6855758 C13.1804155,13.6855758 14.1103014,13.3642185 14.8878048,12.8129049 C14.9221814,13.4655367 15.0573517,14.1896394 15.5881156,14.6260464 C15.3010874,16.087316 13.8749572,17.1661514 12.1820148,17.1661514 C10.4890723,17.1661514 9.06294221,16.087316 8.77591391,14.6260464 C9.30672554,14.1896394 9.44184816,13.4655367 9.47622481,12.8129049 C10.2537282,13.3642185 11.183614,13.6855758 12.1820148,13.6855758 L12.1820148,13.6855758 Z M7.96241279,8.11627331 C7.96441532,8.09448395 7.96436764,8.07269459 7.96241279,8.05100059 L7.96241279,6.0807087 C7.96241279,5.43661149 8.48645398,4.9125703 9.1305512,4.9125703 L15.6149113,4.9125703 C15.8123982,4.9125703 15.9725047,4.7525115 15.9725047,4.55497691 C15.9725047,4.35749 15.8123982,4.19738352 15.6149113,4.19738352 L9.1305512,4.19738352 C8.09209999,4.19738352 7.24722601,5.0422575 7.24722601,6.0807087 L7.24722601,7.15849517 C6.96987658,6.72914471 6.81811395,6.22579626 6.81811395,5.69927575 L6.81811395,3.79211101 C6.81811395,2.72734094 7.68434817,1.86110671 8.74911825,1.86110671 C8.94660516,1.86110671 9.10671164,1.70104791 9.10671164,1.50351332 C9.10671164,1.0697287 9.45963247,0.716807868 9.89341709,0.716807868 L14.8520454,0.716807868 C16.3374407,0.716807868 17.5459156,1.92528281 17.5459156,3.41067806 L17.5459156,5.69927575 C17.5459156,6.2257009 17.394153,6.72904935 17.1168035,7.1584475 L17.1168035,5.69927575 C17.1168035,5.50178884 16.9566971,5.34168236 16.7592102,5.34168236 C16.5617232,5.34168236 16.4016168,5.50178884 16.4016168,5.69927575 L16.4016168,8.36930639 C16.4016168,10.9063123 14.5087081,12.9703413 12.1820148,12.9703413 C9.85532148,12.9703413 7.96241279,10.9063123 7.96241279,8.36930639 L7.96241279,8.11627331 L7.96241279,8.11627331 Z M20.5973792,19.0494766 C20.5973792,19.2673702 20.3638946,19.4514593 20.0875464,19.4514593 L4.27648318,19.4514593 C4.00013501,19.4514593 3.76665036,19.2673702 3.76665036,19.0494766 L3.76665036,17.5719007 C3.76665036,16.665616 4.32726144,15.5911671 5.39894499,15.279298 L8.09696326,14.8745023 C8.49694339,16.611977 10.1877403,17.8813382 12.1820148,17.8813382 C14.1762893,17.8813382 15.8670862,16.611977 16.2670663,14.8745023 L18.9650846,15.279298 C20.0367681,15.5911671 20.5973792,16.665616 20.5973792,17.5719007 L20.5973792,19.0494766 L20.5973792,19.0494766 Z" id="Shape"></path>
                            <path d="M2.26475813,16.0218526 L0.918824293,16.0218526 C0.802296527,16.0218526 0.715186778,15.9512398 0.715186778,15.8880173 L0.715186778,14.9320033 C0.715186778,14.3950887 1.04383894,13.7596215 1.67234508,13.5722425 L3.61889277,13.2802079 C3.62733198,13.2789683 3.63548511,13.2770611 3.6437336,13.2752016 C3.64730953,13.2743911 3.65093314,13.273962 3.65450908,13.2730561 C3.66785923,13.2696708 3.68078027,13.2653797 3.69341524,13.2605641 C3.6964667,13.2594198 3.69947048,13.2579894 3.70247427,13.2567021 C3.71286832,13.252411 3.72297629,13.2476908 3.73284587,13.2424937 C3.73446696,13.2416355 3.73623109,13.2410634 3.73785218,13.2401575 C3.740999,13.238441 3.74385974,13.2365338 3.74700657,13.2347697 C3.7496766,13.2331963 3.75234663,13.2317183 3.75496898,13.2300972 C4.18822913,12.9829286 4.33817996,12.5353647 4.38981644,12.0980042 C4.86450975,12.3796924 5.40957743,12.5405141 5.98916479,12.5405141 C6.47563484,12.5405141 6.94451129,12.4299939 7.38277775,12.2119573 C7.55957192,12.1239893 7.63166275,11.9093856 7.54369477,11.7325437 C7.4557268,11.5557019 7.24107541,11.4836587 7.06423356,11.5716267 C6.72580717,11.739934 6.3640657,11.8253273 5.98916479,11.8253273 C4.55330814,11.8253273 3.38521741,10.5465257 3.38521741,8.97468816 L3.38521741,7.4493378 C3.38521741,7.10218614 3.66762083,6.81978272 4.0147725,6.81978272 L4.93478877,6.81978272 C5.13227568,6.81978272 5.29238216,6.65972392 5.29238216,6.46218933 C5.29238216,6.26470242 5.13227568,6.10459594 4.93478877,6.10459594 L4.0147725,6.10459594 C3.27326684,6.10459594 2.67003064,6.70783215 2.67003064,7.4493378 L2.67003064,7.63676441 C2.63894385,7.51079618 2.62235152,7.38029843 2.62235152,7.24717834 L2.62235152,6.01324275 C2.62235152,5.39393868 3.12617676,4.89011343 3.74548083,4.89011343 C3.94296774,4.89011343 4.10307422,4.73000695 4.10307422,4.53252004 C4.10307422,4.32144459 4.27476673,4.14975208 4.48584219,4.14975208 L4.93478877,4.14975208 C5.13227568,4.14975208 5.29238216,3.98969328 5.29238216,3.79215869 C5.29238216,3.59467178 5.13227568,3.4345653 4.93478877,3.4345653 L4.48584219,3.4345653 C3.99612996,3.4345653 3.58027269,3.75682846 3.43919018,4.20043498 C2.57081039,4.34666684 1.90716474,5.1039066 1.90716474,6.01324275 L1.90716474,7.24717834 C1.90716474,7.90958433 2.18360827,8.52993734 2.67003064,8.97187509 L2.67003064,8.97473584 C2.67003064,9.98877533 3.0667209,10.9045482 3.70132997,11.5544145 C3.69746796,12.009178 3.66266221,12.4168344 3.43785516,12.5842358 L1.54289628,12.8685464 C1.52825879,12.8707396 1.51376433,12.8738388 1.4994606,12.8778438 C0.515029838,13.1536199 0,14.1199326 0,14.9320033 L0,15.8880173 C0,16.3561309 0.41218598,16.7370394 0.918824293,16.7370394 L2.26475813,16.7370394 C2.46224504,16.7370394 2.62235152,16.5769806 2.62235152,16.379446 C2.62235152,16.1819591 2.46224504,16.0218526 2.26475813,16.0218526 L2.26475813,16.0218526 Z" id="Shape"></path>
                            <path d="M22.864569,12.8777962 C22.8503129,12.8738388 22.8357708,12.870692 22.8211333,12.8684987 L20.9261744,12.5841881 C20.7013674,12.4167868 20.6665139,12.0091303 20.6626519,11.5544145 C21.297261,10.9045005 21.6939512,9.98872765 21.6939512,8.97468816 L21.6939512,8.97182741 C22.1803736,8.52988966 22.4568171,7.90948897 22.4568171,7.24674922 L22.4568171,5.3178428 C22.4568171,4.2793916 21.6119432,3.43451762 20.573492,3.43451762 L19.4291931,3.43451762 C19.2317062,3.43451762 19.0715997,3.5946241 19.0715997,3.79211101 C19.0715997,3.9896456 19.2317062,4.1497044 19.4291931,4.1497044 L20.573492,4.1497044 C21.2175892,4.1497044 21.7416304,4.67374559 21.7416304,5.3178428 L21.7416304,7.24713066 C21.7416304,7.38025076 21.725038,7.5107485 21.6939512,7.63671673 L21.6939512,7.44929012 C21.6939512,6.70778447 21.090715,6.10454826 20.3492094,6.10454826 L19.4292408,6.10454826 C19.2317539,6.10454826 19.0716474,6.26465474 19.0716474,6.46214165 C19.0716474,6.65967624 19.2317539,6.81973504 19.4292408,6.81973504 L20.3492571,6.81973504 C20.6964087,6.81973504 20.9788121,7.10213846 20.9788121,7.44929012 L20.9788121,8.97464048 C20.9788121,10.546478 19.8107214,11.8252796 18.3749601,11.8252796 C18.0000115,11.8252796 17.6383177,11.7398863 17.2998914,11.571579 C17.1230018,11.4836111 16.9083981,11.5557019 16.8204301,11.7324961 C16.7324622,11.9093379 16.804553,12.1239416 16.9813472,12.2119096 C17.4196136,12.4298985 17.8884901,12.5404664 18.3749601,12.5404664 C18.9544998,12.5404664 19.4996152,12.3796447 19.9742608,12.0979565 C20.0258973,12.5352694 20.1758958,12.9828809 20.6091559,13.2300495 C20.6117306,13.2316706 20.6144483,13.2331486 20.6170707,13.234722 C20.6201698,13.2364862 20.6230782,13.2383933 20.6262251,13.2401098 C20.6278462,13.2410157 20.6296103,13.2415878 20.6312314,13.2424461 C20.6410533,13.2476431 20.6511612,13.2523633 20.6615553,13.2566544 C20.6646068,13.2579418 20.6676105,13.2593721 20.670662,13.2605164 C20.683297,13.265332 20.6961703,13.2696232 20.7095205,13.2730084 C20.7131441,13.2739143 20.7167677,13.2743911 20.7203913,13.2752016 C20.7285445,13.2770134 20.7366976,13.2789206 20.7450891,13.2801602 L22.6915891,13.5721948 C23.3201429,13.7595738 23.6487951,14.3950411 23.6487951,14.9319556 L23.6487951,15.8879696 C23.6487951,15.9511445 23.5616854,16.0218049 23.4451576,16.0218049 L22.0992714,16.0218049 C21.9017845,16.0218049 21.741678,16.1819114 21.741678,16.3793983 C21.741678,16.5769329 21.9017845,16.7369917 22.0992714,16.7369917 L23.4452053,16.7369917 C23.9518436,16.7369917 24.3640296,16.3561309 24.3640296,15.8879696 L24.3640296,14.9319556 C24.3640296,14.1199326 23.8489997,13.1536199 22.864569,12.8777962 L22.864569,12.8777962 Z" id="Shape"></path>
                        </g>
                    </g>
                </g>
            </g>
        </g>
    </g>
</svg>