<?xml version="1.0" encoding="UTF-8" standalone="no"?>
<svg width="84px" height="84px" viewBox="0 0 84 84" version="1.1" xmlns="http://www.w3.org/2000/svg" xmlns:xlink="http://www.w3.org/1999/xlink">
    <!-- Generator: Sketch 39.1 (31720) - http://www.bohemiancoding.com/sketch -->
    <title>logo</title>
    <desc>Created with Sketch.</desc>
    <defs>
        <path d="M41.5998699,83.1997397 C64.5748436,83.1997397 83.1997397,64.5748436 83.1997397,41.5998699 C83.1997397,18.6248961 64.5748436,0 41.5998699,0 C18.6248961,0 0,18.6248961 0,41.5998699 C0,64.5748436 18.6248961,83.1997397 41.5998699,83.1997397 Z" id="path-1"></path>
        <mask id="mask-2" maskContentUnits="userSpaceOnUse" maskUnits="objectBoundingBox" x="0" y="0" width="83.1997397" height="83.1997397" fill="white">
            <use xlink:href="#path-1"></use>
        </mask>
    </defs>
    <g id="Welcome" stroke="none" stroke-width="1" fill="none" fill-rule="evenodd">
        <g id="Desktop-HD" transform="translate(-679.000000, -148.000000)">
            <g id="hero">
                <g id="title" transform="translate(421.000000, 148.526595)">
                    <g id="logo" transform="translate(258.000000, 0.000000)">
                        <use id="Oval-2" stroke="#FFFFFF" mask="url(#mask-2)" stroke-width="6" xlink:href="#path-1"></use>
                        <g id="people_group" transform="translate(15.039454, 19.270532)" fill="#FFFFFF">
                            <g id="Group">
                                <path d="M40.2653489,30.6864533 C40.2353541,30.6780267 40.2047573,30.6715061 40.1739599,30.6668915 L33.9135598,29.7276208 C32.9011579,29.0726493 32.8056558,27.4481113 32.8037498,25.6889475 C34.7808027,23.6512027 36.0139027,20.7825298 36.0139027,17.6091933 L36.0139027,17.3521805 C37.5483558,15.9895709 38.4215174,14.0562563 38.4215174,11.9914258 L38.4215174,7.17619646 C38.4215174,3.22118779 35.2038407,0.00351110472 31.248832,0.00351110472 L20.8158351,0.00351110472 C19.3181985,0.00351110472 18.0606211,1.05082348 17.7367969,2.451353 C14.9822851,2.78410541 12.8406115,5.13604398 12.8406115,7.97873468 L12.8406115,11.9914258 C12.8406115,14.0565573 13.7136728,15.9896712 15.2482262,17.3522808 L15.2482262,17.6091933 C15.2482262,20.7825298 16.4813262,23.6512027 18.4582788,25.6889475 C18.4564731,27.4481113 18.3608707,29.072549 17.3484687,29.7276208 L11.0880687,30.6668915 C11.0572713,30.6715061 11.0267748,30.6780267 10.9966797,30.6864533 C9.61982503,31.0721733 8.44831986,31.9259736 7.60876456,33.1557631 C6.84244088,34.2783135 6.42030577,35.6333993 6.42030577,36.9714311 L6.42030577,40.0802635 C6.42030577,41.3763628 7.57656271,42.4307977 8.99775759,42.4307977 L42.264271,42.4307977 C43.6854659,42.4307977 44.8417228,41.3763628 44.8417228,40.0802635 L44.8417228,36.9714311 C44.8417228,35.6334996 44.4195877,34.2784138 43.653264,33.1558634 C42.813809,31.9260739 41.6422036,31.0721733 40.2653489,30.6864533 L40.2653489,30.6864533 Z M25.6310644,28.7945698 C27.7317082,28.7945698 29.6881961,28.1184313 31.32407,26.9584627 C31.3963987,28.3316056 31.6807982,29.8551241 32.7975301,30.7733281 C32.1936201,33.847852 29.19303,36.1177311 25.6310644,36.1177311 C22.0690989,36.1177311 19.0685088,33.847852 18.4645988,30.7733281 C19.581431,29.8551241 19.8657302,28.3316056 19.9380589,26.9584627 C21.5739328,28.1184313 23.5304207,28.7945698 25.6310644,28.7945698 L25.6310644,28.7945698 Z M16.7529854,17.0767092 C16.7571987,17.0308642 16.7570984,16.9850192 16.7529854,16.9393749 L16.7529854,12.7938637 C16.7529854,11.4386776 17.8555726,10.3360904 19.2107587,10.3360904 L32.8539084,10.3360904 C33.2694226,10.3360904 33.606288,9.99932529 33.606288,9.58371081 C33.606288,9.16819664 33.2694226,8.83133122 32.8539084,8.83133122 L19.2107587,8.83133122 C17.0258484,8.83133122 15.2482262,10.6089534 15.2482262,12.7938637 L15.2482262,15.0615358 C14.6646806,14.1581787 14.3453707,13.0991292 14.3453707,11.9913255 L14.3453707,7.97863436 C14.3453707,5.73834892 16.167935,3.91578462 18.4082205,3.91578462 C18.8237346,3.91578462 19.1606,3.57901952 19.1606,3.16340503 C19.1606,2.25071844 19.9031485,1.50816995 20.8158351,1.50816995 L31.248832,1.50816995 C34.3741165,1.50816995 36.9167582,4.05081167 36.9167582,7.17609614 L36.9167582,11.9913255 C36.9167582,13.0989285 36.5974483,14.157978 36.0139027,15.0614354 L36.0139027,11.9913255 C36.0139027,11.5758113 35.6770373,11.2389459 35.2615231,11.2389459 C34.8460089,11.2389459 34.5091435,11.5758113 34.5091435,11.9913255 L34.5091435,17.609093 C34.5091435,22.9469754 30.5264473,27.2897103 25.6310644,27.2897103 C20.7356816,27.2897103 16.7529854,22.9469754 16.7529854,17.609093 L16.7529854,17.0767092 L16.7529854,17.0767092 Z M43.337064,40.0802635 C43.337064,40.5387135 42.8458103,40.9260385 42.2643713,40.9260385 L8.99775759,40.9260385 C8.41631865,40.9260385 7.92506494,40.5387135 7.92506494,40.0802635 L7.92506494,36.9714311 C7.92506494,35.0646003 9.10459549,32.8039504 11.3594269,32.1477751 L17.0360807,31.2960814 C17.8776424,34.9517434 21.4350937,37.6224902 25.6310644,37.6224902 C29.8270352,37.6224902 33.3844865,34.9517434 34.2260482,31.2960814 L39.902702,32.1477751 C42.1575334,32.8039504 43.337064,35.0646003 43.337064,36.9714311 L43.337064,40.0802635 L43.337064,40.0802635 Z" id="Shape"></path>
                                <path d="M4.76507069,33.7101164 L1.93321426,33.7101164 C1.68803883,33.7101164 1.50475917,33.5615465 1.50475917,33.4285258 L1.50475917,31.4170641 C1.50475917,30.2873912 2.19624616,28.9503625 3.51862851,28.5561156 L7.61418169,27.9416723 C7.63193785,27.9390641 7.64909211,27.9350514 7.666447,27.931139 C7.67397079,27.9294336 7.6815949,27.9285307 7.6891187,27.9266247 C7.71720754,27.9195022 7.74439352,27.9104736 7.7709776,27.9003416 C7.7773979,27.897934 7.78371789,27.8949245 7.79003788,27.8922159 C7.81190705,27.8831873 7.83317431,27.8732559 7.85393999,27.8623213 C7.85735077,27.8605156 7.86106251,27.8593118 7.8644733,27.8574058 C7.87109424,27.8537944 7.87711328,27.8497817 7.88373422,27.8460699 C7.88935199,27.8427595 7.89496975,27.8396496 7.9004872,27.8362388 C8.81207031,27.3161941 9.12756814,26.3745158 9.23621176,25.4543054 C10.2349706,26.0469799 11.3817977,26.3853501 12.6012545,26.3853501 C13.6247917,26.3853501 14.6113118,26.1528146 15.5334282,25.6940637 C15.9054047,25.5089783 16.0570844,25.0574503 15.871999,24.6853735 C15.6869137,24.3132967 15.2352853,24.1617173 14.8632085,24.3468027 C14.1511565,24.7009226 13.3900493,24.8805909 12.6012545,24.8805909 C9.5801997,24.8805909 7.12252672,22.1899812 7.12252672,18.8828215 L7.12252672,15.6734711 C7.12252672,14.943061 7.71670595,14.3488818 8.44711605,14.3488818 L10.3828382,14.3488818 C10.7983524,14.3488818 11.1352178,14.0121167 11.1352178,13.5965022 C11.1352178,13.1809881 10.7983524,12.8441226 10.3828382,12.8441226 L8.44711605,12.8441226 C6.88698175,12.8441226 5.61776755,14.1133368 5.61776755,15.6734711 L5.61776755,16.0678184 C5.55236069,15.8027801 5.51745027,15.5282117 5.51745027,15.2481259 L5.51745027,12.6519147 C5.51745027,11.3488936 6.57750295,10.288841 7.88052407,10.288841 C8.29603823,10.288841 8.63290365,9.95197553 8.63290365,9.53646137 C8.63290365,9.09235678 8.99414617,8.73111426 9.43825075,8.73111426 L10.3828382,8.73111426 C10.7983524,8.73111426 11.1352178,8.39434916 11.1352178,7.97873468 C11.1352178,7.56322052 10.7983524,7.2263551 10.3828382,7.2263551 L9.43825075,7.2263551 C8.40789199,7.2263551 7.5329247,7.90439958 7.23608587,8.83775153 C5.4090073,9.14542462 4.01269111,10.7386636 4.01269111,12.6519147 L4.01269111,15.2481259 C4.01269111,16.6418338 4.59433068,17.9470619 5.61776755,18.8769028 L5.61776755,18.8829218 C5.61776755,21.0164697 6.4524073,22.9432636 7.78763027,24.3105881 C7.77950457,25.2674143 7.70627295,26.125127 7.23327699,26.477341 L3.24626711,27.0755329 C3.2154697,27.0801475 3.18497325,27.0866681 3.15487807,27.0950948 C1.08362723,27.6753299 0,29.7084602 0,31.4170641 L0,33.4285258 C0,34.4134408 0.867242866,35.2148756 1.93321426,35.2148756 L4.76507069,35.2148756 C5.18058485,35.2148756 5.51745027,34.8781105 5.51745027,34.462496 C5.51745027,34.0469818 5.18058485,33.7101164 4.76507069,33.7101164 L4.76507069,33.7101164 Z" id="Shape"></path>
                                <path d="M48.1072508,27.0949945 C48.077256,27.0866681 48.0466592,27.0800472 48.0158618,27.0754326 L44.0288519,26.4772407 C43.5558559,26.1250267 43.482524,25.267314 43.4743983,24.3105881 C44.8096213,22.9431633 45.644261,21.0163694 45.644261,18.8828215 L45.644261,18.8768025 C46.6676979,17.9469616 47.2493375,16.6416332 47.2493375,15.247223 L47.2493375,11.1887872 C47.2493375,9.00387694 45.4717153,7.22625478 43.286805,7.22625478 L40.8791903,7.22625478 C40.4636762,7.22625478 40.1268108,7.5631202 40.1268108,7.97863436 C40.1268108,8.39424884 40.4636762,8.73101395 40.8791903,8.73101395 L43.286805,8.73101395 C44.6419911,8.73101395 45.7445783,9.83360115 45.7445783,11.1887872 L45.7445783,15.2480256 C45.7445783,15.5281114 45.7096679,15.8026798 45.644261,16.067718 L45.644261,15.6733708 C45.644261,14.1132365 44.3750468,12.8440223 42.8149125,12.8440223 L40.8792907,12.8440223 C40.4637765,12.8440223 40.1269111,13.1808877 40.1269111,13.5964019 C40.1269111,14.0120164 40.4637765,14.3487815 40.8792907,14.3487815 L42.8150128,14.3487815 C43.5454229,14.3487815 44.1396022,14.9429607 44.1396022,15.6733708 L44.1396022,18.8827212 C44.1396022,22.1898809 41.6819292,24.8804906 38.661075,24.8804906 C37.8721799,24.8804906 37.1111731,24.7008223 36.399121,24.3467023 C36.0269439,24.161617 35.5754159,24.3132967 35.3903305,24.6852732 C35.2052451,25.0573499 35.3569248,25.508878 35.7289013,25.6939634 C36.6510177,26.152614 37.6375378,26.3852497 38.661075,26.3852497 C39.8804315,26.3852497 41.027359,26.0468796 42.0260175,25.4542051 C42.1346611,26.3743152 42.4502592,27.3160938 43.3618423,27.8361385 C43.3672595,27.8395493 43.3729775,27.8426592 43.378495,27.8459696 C43.3850156,27.8496814 43.391135,27.8536941 43.3977559,27.8573055 C43.4011667,27.8592115 43.4048784,27.8604153 43.4082892,27.862221 C43.4289546,27.8731556 43.4502218,27.883087 43.472091,27.8921156 C43.4785113,27.8948241 43.4848313,27.8978337 43.4912516,27.9002413 C43.5178357,27.9103733 43.5449214,27.9194019 43.5730102,27.9265244 C43.5806343,27.9284304 43.5882584,27.9294336 43.5958825,27.931139 C43.6130368,27.934951 43.630191,27.9389637 43.6478469,27.941572 L47.7432997,28.5560153 C49.0657824,28.9502622 49.7572694,30.2872909 49.7572694,31.4169638 L49.7572694,33.4284255 C49.7572694,33.5613459 49.5739897,33.7100161 49.3288143,33.7100161 L46.4970582,33.7100161 C46.081544,33.7100161 45.7446786,34.0468815 45.7446786,34.4623957 C45.7446786,34.8780102 46.081544,35.2147753 46.4970582,35.2147753 L49.3289146,35.2147753 C50.394886,35.2147753 51.2621289,34.4134408 51.2621289,33.4284255 L51.2621289,31.4169638 C51.2621289,29.7084602 50.1785017,27.6753299 48.1072508,27.0949945 L48.1072508,27.0949945 Z" id="Shape"></path>
                            </g>
                        </g>
                    </g>
                </g>
            </g>
        </g>
    </g>
</svg>